<?xml version="1.0" encoding="utf-8"?>
<!-- Generator: Adobe Illustrator 21.0.2, SVG Export Plug-In . SVG Version: 6.00 Build 0)  -->
<svg version="1.1" id="Capa_1" xmlns="http://www.w3.org/2000/svg" xmlns:xlink="http://www.w3.org/1999/xlink" x="0px" y="0px"
	 viewBox="0 0 1920 1920" style="enable-background:new 0 0 1920 1920;" xml:space="preserve">
<style type="text/css">
	.st0{fill:#E7AD47;}
	.st1{fill:#EEC02D;}
	.st2{fill:#FFFF3C;}
</style>
<g>
	<g>
		<path class="st0" d="M792.5,354.1c53.3-14.7,109.5-22.6,167.5-22.6s114.1,7.9,167.5,22.6c6.2-15.5,12.6-31.7,19.3-48.5
			c-59.3-16.9-122-25.9-186.7-25.9c-64.8,0-127.4,9.1-186.7,25.9C779.9,322.4,786.3,338.6,792.5,354.1z"/>
		<path class="st0" d="M1181,371.5c107,40.2,200.1,108.7,270.2,196.5c14.2-8.9,28.9-18.2,44.2-27.9
			c-77.5-98.6-181.6-175.3-301.5-219.2C1189.4,338.5,1185.1,355.3,1181,371.5z"/>
		<path class="st0" d="M435.6,613.6c-12.8-10.7-26.2-21.8-40.2-33.3c-68.7,101.9-110.5,223.5-115.3,354.5
			c18.1-1.2,35.5-2.3,52.1-3.4C337.4,814.3,374.8,705.5,435.6,613.6z"/>
		<path class="st0" d="M1587.8,931.4c16.7,1.1,34,2.3,52.1,3.4c-4.8-131-46.6-252.6-115.3-354.5c-14,11.5-27.4,22.6-40.2,33.3
			C1545.2,705.5,1582.6,814.3,1587.8,931.4z"/>
		<path class="st0" d="M1484.4,1306.4c12.8,10.7,26.2,21.8,40.2,33.3c68.7-102,110.5-223.5,115.3-354.5c-18.1,1.2-35.5,2.3-52.1,3.4
			C1582.6,1105.7,1545.2,1214.5,1484.4,1306.4z"/>
		<path class="st0" d="M332.2,988.6c-16.7-1.2-34-2.3-52.1-3.4c4.8,131,46.6,252.6,115.3,354.5c14-11.5,27.4-22.7,40.2-33.3
			C374.8,1214.5,337.4,1105.7,332.2,988.6z"/>
		<path class="st0" d="M1127.5,1565.9c-53.3,14.7-109.5,22.6-167.5,22.6s-114.1-7.9-167.5-22.6c-6.2,15.5-12.6,31.7-19.3,48.5
			c59.3,16.9,122,25.9,186.7,25.9c64.8,0,127.4-9,186.7-25.9C1140.1,1597.6,1133.7,1581.4,1127.5,1565.9z"/>
		<path class="st0" d="M1451.2,1352c-70.1,87.7-163.2,156.3-270.2,196.5c4.1,16.2,8.4,33.1,12.9,50.6
			c119.9-43.9,224-120.6,301.5-219.2C1480.1,1370.2,1465.4,1360.9,1451.2,1352z"/>
		<path class="st0" d="M468.8,568C538.9,480.3,632,411.7,739,371.5c-4.1-16.2-8.4-33.1-12.9-50.6c-119.9,43.9-224,120.6-301.5,219.2
			C439.9,549.8,454.6,559.1,468.8,568z"/>
		<path class="st0" d="M739,1548.5c-107-40.2-200.1-108.7-270.2-196.5c-14.2,8.9-28.9,18.2-44.2,27.9
			c77.5,98.6,181.6,175.3,301.5,219.2C730.6,1581.5,734.9,1564.7,739,1548.5z"/>
	</g>
	<path class="st1" d="M1838.3,960c-528.2,30.2-669.8,37.6-377.4,162.8c-310.4-69.7-200.5,19.5,209.6,353.6
		c-444.6-286.8-563.4-363.8-401.1-90.3c-209.5-239.1-172.9-102.2-37.9,409.4c-190.5-493.6-241.2-625.6-271.4-309
		c-30.2-316.6-80.9-184.6-271.4,309c135-511.6,171.6-648.5-37.9-409.4c162.3-273.5,43.4-196.5-401.1,90.3
		c410.2-334.1,520-423.2,209.6-353.6C751.5,997.6,609.9,990.2,81.7,960c528.2-30.2,669.8-37.6,377.4-162.8
		c310.4,69.6,200.5-19.5-209.6-353.6C694.1,730.4,812.9,807.5,650.7,534c209.5,239.1,172.9,102.2,37.9-409.4
		c190.5,493.6,241.2,625.6,271.4,309c30.2,316.6,80.9,184.6,271.4-309c-135,511.6-171.6,648.5,37.9,409.4
		c-162.3,273.5-43.4,196.5,401.1-90.3c-410.2,334-520,423.2-209.6,353.6C1168.5,922.4,1310.1,929.8,1838.3,960z"/>
	<path class="st2" d="M1276.7,960c0,174.9-141.8,316.7-316.7,316.7c-174.9,0-316.7-141.8-316.7-316.7
		c0-174.9,141.8-316.7,316.7-316.7C1134.9,643.3,1276.7,785.1,1276.7,960z"/>
</g>
</svg>
